# xmcd
#
# Track frame offsets:
# 150
# 18840
# 48560
# 74880
# 88685
# 145275
# 181650
# 211510
# 239535
# 280965
# 319725
#
# Disc length: 4439 seconds
# Revision: 1
# Processed by: cddbd v1.4PL0 Copyright (c) Steve Scherf et al.
# Submitted via: cd2ogg.sh 0.6.0
#
DISCID=9e11550b
DTITLE=Janiss Joplin - Light is faster then sound
DYEAR=1900
DGENRE=
TTITLE0=Call on me
TTITLE1=Combination of the two
TTITLE2=Blow my mind
TTITLE3=Down on me
TTITLE4=All is loneliness/ Drum solo
TTITLE5=Road block
TTITLE6=Light is faster then sound
TTITLE7=Bye bye baby
TTITLE8=Goin' to Brownsville
TTITLE9=Ball and chain
TTITLE10=I know you rider
EXTD=
EXTT0=
EXTT1=
EXTT2=
EXTT3=
EXTT4=
EXTT5=
EXTT6=
EXTT7=
EXTT8=
EXTT9=
EXTT10=
PLAYORDER=
